<svg xmlns="http://www.w3.org/2000/svg" width="2660" height="1390" viewBox="0 0 2660 1390">
<defs>
<marker id="arrow" markerWidth="12" markerHeight="12" refX="10" refY="6" orient="auto" markerUnits="strokeWidth">
<path d="M0,0 L12,6 L0,12 z" fill="#64748B"/>
</marker>
<filter id="shadow" x="-20%" y="-20%" width="140%" height="140%">
<feDropShadow dx="0" dy="2" stdDeviation="4" flood-color="#0f172a" flood-opacity="0.10"/>
</filter>
</defs>
<rect width="2660" height="1390" fill="#ffffff"/>
<text x="1330.0" y="38" text-anchor="middle" font-family="Arial, Helvetica, sans-serif" font-size="26" font-weight="700" fill="#0F172A">SANTE SN - Diagramme Global Simple Front + API</text>
<rect x="30" y="70" width="960" height="1120" rx="16" fill="#F8FAFC" stroke="#CBD5E1" stroke-width="2"/>
<text x="48" y="98" font-family="Arial, Helvetica, sans-serif" font-size="18" font-weight="700" fill="#0F172A">Frontend React / Vite</text>
<rect x="1060" y="70" width="1560" height="1280" rx="16" fill="#F8FAFC" stroke="#CBD5E1" stroke-width="2"/>
<text x="1078" y="98" font-family="Arial, Helvetica, sans-serif" font-size="18" font-weight="700" fill="#0F172A">Backend API Node / Express / Prisma</text>
<line x1="320" y1="185.0" x2="360" y2="472.0" stroke="#64748B" stroke-width="2" marker-end="url(#arrow)"/>
<line x1="320" y1="413.0" x2="360" y2="472.0" stroke="#64748B" stroke-width="2" marker-end="url(#arrow)"/>
<line x1="505.0" y1="380" x2="505.0" y2="304" stroke="#64748B" stroke-width="2" marker-end="url(#arrow)"/>
<line x1="505.0" y1="680" x2="505.0" y2="304" stroke="#64748B" stroke-width="2" marker-end="url(#arrow)"/>
<line x1="650" y1="472.0" x2="700" y2="224.0" stroke="#64748B" stroke-width="2" stroke-dasharray="8 6"/>
<rect x="611.0" y="334.0" width="128" height="20" rx="8" fill="#FFFFFF" opacity="0.9"/>
<text x="675.0" y="348.0" text-anchor="middle" font-family="Arial, Helvetica, sans-serif" font-size="12" fill="#475569">state</text>
<line x1="650" y1="763.0" x2="700" y2="476.0" stroke="#64748B" stroke-width="2" stroke-dasharray="8 6"/>
<rect x="611.0" y="605.5" width="128" height="20" rx="8" fill="#FFFFFF" opacity="0.9"/>
<text x="675.0" y="619.5" text-anchor="middle" font-family="Arial, Helvetica, sans-serif" font-size="12" fill="#475569">session</text>
<line x1="505.0" y1="680" x2="820.0" y2="288" stroke="#64748B" stroke-width="2" stroke-dasharray="8 6"/>
<rect x="598.5" y="470.0" width="128" height="20" rx="8" fill="#FFFFFF" opacity="0.9"/>
<text x="662.5" y="484.0" text-anchor="middle" font-family="Arial, Helvetica, sans-serif" font-size="12" fill="#475569">user dto</text>
<line x1="650" y1="212.0" x2="1120" y2="192.0" stroke="#64748B" stroke-width="2" stroke-dasharray="8 6" marker-end="url(#arrow)"/>
<rect x="821.0" y="188.0" width="128" height="20" rx="8" fill="#FFFFFF" opacity="0.9"/>
<text x="885.0" y="202.0" text-anchor="middle" font-family="Arial, Helvetica, sans-serif" font-size="12" fill="#475569">HTTP /api/v1</text>
<line x1="1410" y1="192.0" x2="1450" y2="192.0" stroke="#64748B" stroke-width="2" marker-end="url(#arrow)"/>
<line x1="1920.0" y1="246" x2="1910.0" y2="350" stroke="#64748B" stroke-width="2"/>
<text x="1888.0" y="238" font-family="Arial, Helvetica, sans-serif" font-size="12" font-weight="700" fill="#334155">1</text>
<text x="1878.0" y="342" font-family="Arial, Helvetica, sans-serif" font-size="12" font-weight="700" fill="#334155">0..1</text>
<line x1="2050" y1="173.0" x2="2060" y2="414.0" stroke="#64748B" stroke-width="2"/>
<text x="2058" y="165.0" font-family="Arial, Helvetica, sans-serif" font-size="12" font-weight="700" fill="#334155">1</text>
<text x="2068" y="406.0" font-family="Arial, Helvetica, sans-serif" font-size="12" font-weight="700" fill="#334155">0..1</text>
<line x1="2050" y1="173.0" x2="2330" y2="414.0" stroke="#64748B" stroke-width="2"/>
<text x="2058" y="165.0" font-family="Arial, Helvetica, sans-serif" font-size="12" font-weight="700" fill="#334155">1</text>
<text x="2338" y="406.0" font-family="Arial, Helvetica, sans-serif" font-size="12" font-weight="700" fill="#334155">0..1</text>
<line x1="1920.0" y1="246" x2="2450.0" y2="900" stroke="#64748B" stroke-width="2"/>
<text x="1928.0" y="238" font-family="Arial, Helvetica, sans-serif" font-size="12" font-weight="700" fill="#334155">1</text>
<text x="2458.0" y="892" font-family="Arial, Helvetica, sans-serif" font-size="12" font-weight="700" fill="#334155">0..*</text>
<line x1="1910.0" y1="478" x2="1920.0" y2="620" stroke="#64748B" stroke-width="2"/>
<text x="1918.0" y="470" font-family="Arial, Helvetica, sans-serif" font-size="12" font-weight="700" fill="#334155">1</text>
<text x="1928.0" y="612" font-family="Arial, Helvetica, sans-serif" font-size="12" font-weight="700" fill="#334155">0..*</text>
<line x1="2180.0" y1="478" x2="1920.0" y2="620" stroke="#64748B" stroke-width="2"/>
<text x="2148.0" y="470" font-family="Arial, Helvetica, sans-serif" font-size="12" font-weight="700" fill="#334155">1</text>
<text x="1888.0" y="612" font-family="Arial, Helvetica, sans-serif" font-size="12" font-weight="700" fill="#334155">0..*</text>
<line x1="2180.0" y1="478" x2="2195.0" y2="1140" stroke="#64748B" stroke-width="2"/>
<text x="2188.0" y="470" font-family="Arial, Helvetica, sans-serif" font-size="12" font-weight="700" fill="#334155">1</text>
<text x="2203.0" y="1132" font-family="Arial, Helvetica, sans-serif" font-size="12" font-weight="700" fill="#334155">0..*</text>
<line x1="2300" y1="414.0" x2="2330" y2="414.0" stroke="#64748B" stroke-width="2"/>
<text x="2308" y="406.0" font-family="Arial, Helvetica, sans-serif" font-size="12" font-weight="700" fill="#334155">1</text>
<text x="2338" y="406.0" font-family="Arial, Helvetica, sans-serif" font-size="12" font-weight="700" fill="#334155">0..*</text>
<line x1="2050" y1="702.0" x2="2080" y2="693.0" stroke="#64748B" stroke-width="2"/>
<text x="2058" y="694.0" font-family="Arial, Helvetica, sans-serif" font-size="12" font-weight="700" fill="#334155">1</text>
<text x="2088" y="685.0" font-family="Arial, Helvetica, sans-serif" font-size="12" font-weight="700" fill="#334155">0..1</text>
<line x1="1920.0" y1="784" x2="1910.0" y2="900" stroke="#64748B" stroke-width="2"/>
<text x="1888.0" y="776" font-family="Arial, Helvetica, sans-serif" font-size="12" font-weight="700" fill="#334155">1</text>
<text x="1878.0" y="892" font-family="Arial, Helvetica, sans-serif" font-size="12" font-weight="700" fill="#334155">0..1</text>
<line x1="2030" y1="414.0" x2="2080" y2="693.0" stroke="#64748B" stroke-width="2"/>
<text x="2038" y="406.0" font-family="Arial, Helvetica, sans-serif" font-size="12" font-weight="700" fill="#334155">1</text>
<text x="2088" y="685.0" font-family="Arial, Helvetica, sans-serif" font-size="12" font-weight="700" fill="#334155">0..*</text>
<line x1="2180.0" y1="478" x2="2210.0" y2="620" stroke="#64748B" stroke-width="2"/>
<text x="2188.0" y="470" font-family="Arial, Helvetica, sans-serif" font-size="12" font-weight="700" fill="#334155">1</text>
<text x="2218.0" y="612" font-family="Arial, Helvetica, sans-serif" font-size="12" font-weight="700" fill="#334155">0..*</text>
<line x1="2340" y1="693.0" x2="2370" y2="666.0" stroke="#64748B" stroke-width="2"/>
<text x="2348" y="685.0" font-family="Arial, Helvetica, sans-serif" font-size="12" font-weight="700" fill="#334155">1</text>
<text x="2378" y="658.0" font-family="Arial, Helvetica, sans-serif" font-size="12" font-weight="700" fill="#334155">0..1</text>
<line x1="2210.0" y1="766" x2="2180.0" y2="900" stroke="#64748B" stroke-width="2"/>
<text x="2178.0" y="758" font-family="Arial, Helvetica, sans-serif" font-size="12" font-weight="700" fill="#334155">1</text>
<text x="2148.0" y="892" font-family="Arial, Helvetica, sans-serif" font-size="12" font-weight="700" fill="#334155">0..*</text>
<line x1="1910.0" y1="478" x2="1910.0" y2="900" stroke="#64748B" stroke-width="2"/>
<text x="1918.0" y="470" font-family="Arial, Helvetica, sans-serif" font-size="12" font-weight="700" fill="#334155">1</text>
<text x="1918.0" y="892" font-family="Arial, Helvetica, sans-serif" font-size="12" font-weight="700" fill="#334155">0..*</text>
<line x1="1910.0" y1="478" x2="2180.0" y2="900" stroke="#64748B" stroke-width="2"/>
<text x="1918.0" y="470" font-family="Arial, Helvetica, sans-serif" font-size="12" font-weight="700" fill="#334155">1</text>
<text x="2188.0" y="892" font-family="Arial, Helvetica, sans-serif" font-size="12" font-weight="700" fill="#334155">0..*</text>
<line x1="940" y1="224.0" x2="1790" y2="173.0" stroke="#64748B" stroke-width="2" stroke-dasharray="8 6"/>
<rect x="1301.0" y="184.5" width="128" height="20" rx="8" fill="#FFFFFF" opacity="0.9"/>
<text x="1365.0" y="198.5" text-anchor="middle" font-family="Arial, Helvetica, sans-serif" font-size="12" fill="#475569">mapping</text>
<line x1="940" y1="723.0" x2="1790" y2="702.0" stroke="#64748B" stroke-width="2" stroke-dasharray="8 6"/>
<rect x="1301.0" y="698.5" width="128" height="20" rx="8" fill="#FFFFFF" opacity="0.9"/>
<text x="1365.0" y="712.5" text-anchor="middle" font-family="Arial, Helvetica, sans-serif" font-size="12" fill="#475569">mapping</text>
<g filter="url(#shadow)">
<rect x="70" y="120" width="250" height="130" rx="10" fill="#FFFFFF" stroke="#475569" stroke-width="2"/>
<rect x="70" y="120" width="250" height="36" rx="10" fill="#E2E8F0" stroke="#475569" stroke-width="2"/>
<text x="195.0" y="144" text-anchor="middle" font-family="Arial, Helvetica, sans-serif" font-size="16" font-weight="700" fill="#0F172A">LoginPage</text>
<text x="82" y="170" font-family="Arial, Helvetica, sans-serif" font-size="14" fill="#1E293B">email</text>
<text x="82" y="188" font-family="Arial, Helvetica, sans-serif" font-size="14" fill="#1E293B">password</text>
<line x1="70" y1="212" x2="320" y2="212" stroke="#CBD5E1" stroke-width="1.5"/>
<text x="82" y="230" font-family="Arial, Helvetica, sans-serif" font-size="14" fill="#0F766E">handleSubmit()</text>
</g>
<g filter="url(#shadow)">
<rect x="70" y="330" width="250" height="166" rx="10" fill="#FFFFFF" stroke="#475569" stroke-width="2"/>
<rect x="70" y="330" width="250" height="36" rx="10" fill="#E2E8F0" stroke="#475569" stroke-width="2"/>
<text x="195.0" y="354" text-anchor="middle" font-family="Arial, Helvetica, sans-serif" font-size="16" font-weight="700" fill="#0F172A">RegisterPage</text>
<text x="82" y="380" font-family="Arial, Helvetica, sans-serif" font-size="14" fill="#1E293B">nom</text>
<text x="82" y="398" font-family="Arial, Helvetica, sans-serif" font-size="14" fill="#1E293B">prenom</text>
<text x="82" y="416" font-family="Arial, Helvetica, sans-serif" font-size="14" fill="#1E293B">email</text>
<text x="82" y="434" font-family="Arial, Helvetica, sans-serif" font-size="14" fill="#1E293B">password</text>
<line x1="70" y1="458" x2="320" y2="458" stroke="#CBD5E1" stroke-width="1.5"/>
<text x="82" y="476" font-family="Arial, Helvetica, sans-serif" font-size="14" fill="#0F766E">handleSubmit()</text>
</g>
<g filter="url(#shadow)">
<rect x="360" y="120" width="290" height="184" rx="10" fill="#FFFFFF" stroke="#475569" stroke-width="2"/>
<rect x="360" y="120" width="290" height="36" rx="10" fill="#E2E8F0" stroke="#475569" stroke-width="2"/>
<text x="505.0" y="144" text-anchor="middle" font-family="Arial, Helvetica, sans-serif" font-size="16" font-weight="700" fill="#0F172A">APIService</text>
<text x="372" y="170" font-family="Arial, Helvetica, sans-serif" font-size="14" fill="#1E293B">baseURL</text>
<text x="372" y="188" font-family="Arial, Helvetica, sans-serif" font-size="14" fill="#1E293B">token</text>
<line x1="360" y1="212" x2="650" y2="212" stroke="#CBD5E1" stroke-width="1.5"/>
<text x="372" y="230" font-family="Arial, Helvetica, sans-serif" font-size="14" fill="#0F766E">get()</text>
<text x="372" y="248" font-family="Arial, Helvetica, sans-serif" font-size="14" fill="#0F766E">post()</text>
<text x="372" y="266" font-family="Arial, Helvetica, sans-serif" font-size="14" fill="#0F766E">put()</text>
<text x="372" y="284" font-family="Arial, Helvetica, sans-serif" font-size="14" fill="#0F766E">delete()</text>
</g>
<g filter="url(#shadow)">
<rect x="360" y="380" width="290" height="184" rx="10" fill="#FFFFFF" stroke="#475569" stroke-width="2"/>
<rect x="360" y="380" width="290" height="36" rx="10" fill="#E2E8F0" stroke="#475569" stroke-width="2"/>
<text x="505.0" y="404" text-anchor="middle" font-family="Arial, Helvetica, sans-serif" font-size="16" font-weight="700" fill="#0F172A">AuthStore</text>
<text x="372" y="430" font-family="Arial, Helvetica, sans-serif" font-size="14" fill="#1E293B">user</text>
<text x="372" y="448" font-family="Arial, Helvetica, sans-serif" font-size="14" fill="#1E293B">token</text>
<text x="372" y="466" font-family="Arial, Helvetica, sans-serif" font-size="14" fill="#1E293B">isAuthenticated</text>
<line x1="360" y1="490" x2="650" y2="490" stroke="#CBD5E1" stroke-width="1.5"/>
<text x="372" y="508" font-family="Arial, Helvetica, sans-serif" font-size="14" fill="#0F766E">login()</text>
<text x="372" y="526" font-family="Arial, Helvetica, sans-serif" font-size="14" fill="#0F766E">register()</text>
<text x="372" y="544" font-family="Arial, Helvetica, sans-serif" font-size="14" fill="#0F766E">logout()</text>
</g>
<g filter="url(#shadow)">
<rect x="360" y="680" width="290" height="166" rx="10" fill="#FFFFFF" stroke="#475569" stroke-width="2"/>
<rect x="360" y="680" width="290" height="36" rx="10" fill="#E2E8F0" stroke="#475569" stroke-width="2"/>
<text x="505.0" y="704" text-anchor="middle" font-family="Arial, Helvetica, sans-serif" font-size="16" font-weight="700" fill="#0F172A">AuthRepository</text>
<line x1="360" y1="736" x2="650" y2="736" stroke="#CBD5E1" stroke-width="1.5"/>
<text x="372" y="754" font-family="Arial, Helvetica, sans-serif" font-size="14" fill="#0F766E">login()</text>
<text x="372" y="772" font-family="Arial, Helvetica, sans-serif" font-size="14" fill="#0F766E">register()</text>
<text x="372" y="790" font-family="Arial, Helvetica, sans-serif" font-size="14" fill="#0F766E">forgotPassword()</text>
<text x="372" y="808" font-family="Arial, Helvetica, sans-serif" font-size="14" fill="#0F766E">resetPassword()</text>
<text x="372" y="826" font-family="Arial, Helvetica, sans-serif" font-size="14" fill="#0F766E">getCurrentUser()</text>
</g>
<g filter="url(#shadow)">
<rect x="700" y="160" width="240" height="128" rx="10" fill="#FFFFFF" stroke="#475569" stroke-width="2"/>
<rect x="700" y="160" width="240" height="36" rx="10" fill="#E2E8F0" stroke="#475569" stroke-width="2"/>
<text x="820.0" y="184" text-anchor="middle" font-family="Arial, Helvetica, sans-serif" font-size="16" font-weight="700" fill="#0F172A">FrontUser</text>
<text x="712" y="210" font-family="Arial, Helvetica, sans-serif" font-size="14" fill="#1E293B">id</text>
<text x="712" y="228" font-family="Arial, Helvetica, sans-serif" font-size="14" fill="#1E293B">email</text>
<text x="712" y="246" font-family="Arial, Helvetica, sans-serif" font-size="14" fill="#1E293B">name</text>
<text x="712" y="264" font-family="Arial, Helvetica, sans-serif" font-size="14" fill="#1E293B">role</text>
</g>
<g filter="url(#shadow)">
<rect x="700" y="430" width="240" height="92" rx="10" fill="#FFFFFF" stroke="#475569" stroke-width="2"/>
<rect x="700" y="430" width="240" height="36" rx="10" fill="#E2E8F0" stroke="#475569" stroke-width="2"/>
<text x="820.0" y="454" text-anchor="middle" font-family="Arial, Helvetica, sans-serif" font-size="16" font-weight="700" fill="#0F172A">FrontSession</text>
<text x="712" y="480" font-family="Arial, Helvetica, sans-serif" font-size="14" fill="#1E293B">accessToken</text>
<text x="712" y="498" font-family="Arial, Helvetica, sans-serif" font-size="14" fill="#1E293B">refreshToken</text>
</g>
<g filter="url(#shadow)">
<rect x="700" y="650" width="240" height="146" rx="10" fill="#FFFFFF" stroke="#475569" stroke-width="2"/>
<rect x="700" y="650" width="240" height="36" rx="10" fill="#E2E8F0" stroke="#475569" stroke-width="2"/>
<text x="820.0" y="674" text-anchor="middle" font-family="Arial, Helvetica, sans-serif" font-size="16" font-weight="700" fill="#0F172A">FrontRendezVous</text>
<text x="712" y="700" font-family="Arial, Helvetica, sans-serif" font-size="14" fill="#1E293B">id</text>
<text x="712" y="718" font-family="Arial, Helvetica, sans-serif" font-size="14" fill="#1E293B">date</text>
<text x="712" y="736" font-family="Arial, Helvetica, sans-serif" font-size="14" fill="#1E293B">heure</text>
<text x="712" y="754" font-family="Arial, Helvetica, sans-serif" font-size="14" fill="#1E293B">type</text>
<text x="712" y="772" font-family="Arial, Helvetica, sans-serif" font-size="14" fill="#1E293B">statut</text>
</g>
<g filter="url(#shadow)">
<rect x="1120" y="100" width="290" height="184" rx="10" fill="#FFFFFF" stroke="#475569" stroke-width="2"/>
<rect x="1120" y="100" width="290" height="36" rx="10" fill="#E2E8F0" stroke="#475569" stroke-width="2"/>
<text x="1265.0" y="124" text-anchor="middle" font-family="Arial, Helvetica, sans-serif" font-size="16" font-weight="700" fill="#0F172A">AuthController</text>
<line x1="1120" y1="156" x2="1410" y2="156" stroke="#CBD5E1" stroke-width="1.5"/>
<text x="1132" y="174" font-family="Arial, Helvetica, sans-serif" font-size="14" fill="#0F766E">register()</text>
<text x="1132" y="192" font-family="Arial, Helvetica, sans-serif" font-size="14" fill="#0F766E">login()</text>
<text x="1132" y="210" font-family="Arial, Helvetica, sans-serif" font-size="14" fill="#0F766E">logout()</text>
<text x="1132" y="228" font-family="Arial, Helvetica, sans-serif" font-size="14" fill="#0F766E">forgotPassword()</text>
<text x="1132" y="246" font-family="Arial, Helvetica, sans-serif" font-size="14" fill="#0F766E">resetPassword()</text>
<text x="1132" y="264" font-family="Arial, Helvetica, sans-serif" font-size="14" fill="#0F766E">me()</text>
</g>
<g filter="url(#shadow)">
<rect x="1450" y="100" width="290" height="184" rx="10" fill="#FFFFFF" stroke="#475569" stroke-width="2"/>
<rect x="1450" y="100" width="290" height="36" rx="10" fill="#E2E8F0" stroke="#475569" stroke-width="2"/>
<text x="1595.0" y="124" text-anchor="middle" font-family="Arial, Helvetica, sans-serif" font-size="16" font-weight="700" fill="#0F172A">AuthService</text>
<line x1="1450" y1="156" x2="1740" y2="156" stroke="#CBD5E1" stroke-width="1.5"/>
<text x="1462" y="174" font-family="Arial, Helvetica, sans-serif" font-size="14" fill="#0F766E">register()</text>
<text x="1462" y="192" font-family="Arial, Helvetica, sans-serif" font-size="14" fill="#0F766E">login()</text>
<text x="1462" y="210" font-family="Arial, Helvetica, sans-serif" font-size="14" fill="#0F766E">logout()</text>
<text x="1462" y="228" font-family="Arial, Helvetica, sans-serif" font-size="14" fill="#0F766E">forgotPassword()</text>
<text x="1462" y="246" font-family="Arial, Helvetica, sans-serif" font-size="14" fill="#0F766E">resetPassword()</text>
<text x="1462" y="264" font-family="Arial, Helvetica, sans-serif" font-size="14" fill="#0F766E">refreshToken()</text>
</g>
<g filter="url(#shadow)">
<rect x="1790" y="100" width="260" height="146" rx="10" fill="#FFFFFF" stroke="#475569" stroke-width="2"/>
<rect x="1790" y="100" width="260" height="36" rx="10" fill="#E2E8F0" stroke="#475569" stroke-width="2"/>
<text x="1920.0" y="124" text-anchor="middle" font-family="Arial, Helvetica, sans-serif" font-size="16" font-weight="700" fill="#0F172A">User</text>
<text x="1802" y="150" font-family="Arial, Helvetica, sans-serif" font-size="14" fill="#1E293B">id</text>
<text x="1802" y="168" font-family="Arial, Helvetica, sans-serif" font-size="14" fill="#1E293B">email</text>
<text x="1802" y="186" font-family="Arial, Helvetica, sans-serif" font-size="14" fill="#1E293B">password</text>
<text x="1802" y="204" font-family="Arial, Helvetica, sans-serif" font-size="14" fill="#1E293B">name</text>
<text x="1802" y="222" font-family="Arial, Helvetica, sans-serif" font-size="14" fill="#1E293B">role</text>
</g>
<g filter="url(#shadow)">
<rect x="1790" y="350" width="240" height="128" rx="10" fill="#FFFFFF" stroke="#475569" stroke-width="2"/>
<rect x="1790" y="350" width="240" height="36" rx="10" fill="#E2E8F0" stroke="#475569" stroke-width="2"/>
<text x="1910.0" y="374" text-anchor="middle" font-family="Arial, Helvetica, sans-serif" font-size="16" font-weight="700" fill="#0F172A">Patient</text>
<text x="1802" y="400" font-family="Arial, Helvetica, sans-serif" font-size="14" fill="#1E293B">id</text>
<text x="1802" y="418" font-family="Arial, Helvetica, sans-serif" font-size="14" fill="#1E293B">nom</text>
<text x="1802" y="436" font-family="Arial, Helvetica, sans-serif" font-size="14" fill="#1E293B">prenom</text>
<text x="1802" y="454" font-family="Arial, Helvetica, sans-serif" font-size="14" fill="#1E293B">telephone</text>
</g>
<g filter="url(#shadow)">
<rect x="2060" y="350" width="240" height="128" rx="10" fill="#FFFFFF" stroke="#475569" stroke-width="2"/>
<rect x="2060" y="350" width="240" height="36" rx="10" fill="#E2E8F0" stroke="#475569" stroke-width="2"/>
<text x="2180.0" y="374" text-anchor="middle" font-family="Arial, Helvetica, sans-serif" font-size="16" font-weight="700" fill="#0F172A">Medecin</text>
<text x="2072" y="400" font-family="Arial, Helvetica, sans-serif" font-size="14" fill="#1E293B">id</text>
<text x="2072" y="418" font-family="Arial, Helvetica, sans-serif" font-size="14" fill="#1E293B">nom</text>
<text x="2072" y="436" font-family="Arial, Helvetica, sans-serif" font-size="14" fill="#1E293B">prenom</text>
<text x="2072" y="454" font-family="Arial, Helvetica, sans-serif" font-size="14" fill="#1E293B">specialite</text>
</g>
<g filter="url(#shadow)">
<rect x="2330" y="350" width="240" height="128" rx="10" fill="#FFFFFF" stroke="#475569" stroke-width="2"/>
<rect x="2330" y="350" width="240" height="36" rx="10" fill="#E2E8F0" stroke="#475569" stroke-width="2"/>
<text x="2450.0" y="374" text-anchor="middle" font-family="Arial, Helvetica, sans-serif" font-size="16" font-weight="700" fill="#0F172A">Secretaire</text>
<text x="2342" y="400" font-family="Arial, Helvetica, sans-serif" font-size="14" fill="#1E293B">id</text>
<text x="2342" y="418" font-family="Arial, Helvetica, sans-serif" font-size="14" fill="#1E293B">nom</text>
<text x="2342" y="436" font-family="Arial, Helvetica, sans-serif" font-size="14" fill="#1E293B">prenom</text>
<text x="2342" y="454" font-family="Arial, Helvetica, sans-serif" font-size="14" fill="#1E293B">telephone</text>
</g>
<g filter="url(#shadow)">
<rect x="1790" y="620" width="260" height="164" rx="10" fill="#FFFFFF" stroke="#475569" stroke-width="2"/>
<rect x="1790" y="620" width="260" height="36" rx="10" fill="#E2E8F0" stroke="#475569" stroke-width="2"/>
<text x="1920.0" y="644" text-anchor="middle" font-family="Arial, Helvetica, sans-serif" font-size="16" font-weight="700" fill="#0F172A">RendezVous</text>
<text x="1802" y="670" font-family="Arial, Helvetica, sans-serif" font-size="14" fill="#1E293B">id</text>
<text x="1802" y="688" font-family="Arial, Helvetica, sans-serif" font-size="14" fill="#1E293B">numero</text>
<text x="1802" y="706" font-family="Arial, Helvetica, sans-serif" font-size="14" fill="#1E293B">date</text>
<text x="1802" y="724" font-family="Arial, Helvetica, sans-serif" font-size="14" fill="#1E293B">heure</text>
<text x="1802" y="742" font-family="Arial, Helvetica, sans-serif" font-size="14" fill="#1E293B">type</text>
<text x="1802" y="760" font-family="Arial, Helvetica, sans-serif" font-size="14" fill="#1E293B">statut</text>
</g>
<g filter="url(#shadow)">
<rect x="2080" y="620" width="260" height="146" rx="10" fill="#FFFFFF" stroke="#475569" stroke-width="2"/>
<rect x="2080" y="620" width="260" height="36" rx="10" fill="#E2E8F0" stroke="#475569" stroke-width="2"/>
<text x="2210.0" y="644" text-anchor="middle" font-family="Arial, Helvetica, sans-serif" font-size="16" font-weight="700" fill="#0F172A">Consultation</text>
<text x="2092" y="670" font-family="Arial, Helvetica, sans-serif" font-size="14" fill="#1E293B">id</text>
<text x="2092" y="688" font-family="Arial, Helvetica, sans-serif" font-size="14" fill="#1E293B">date</text>
<text x="2092" y="706" font-family="Arial, Helvetica, sans-serif" font-size="14" fill="#1E293B">heure</text>
<text x="2092" y="724" font-family="Arial, Helvetica, sans-serif" font-size="14" fill="#1E293B">statut</text>
<text x="2092" y="742" font-family="Arial, Helvetica, sans-serif" font-size="14" fill="#1E293B">diagnostic</text>
</g>
<g filter="url(#shadow)">
<rect x="2370" y="620" width="240" height="92" rx="10" fill="#FFFFFF" stroke="#475569" stroke-width="2"/>
<rect x="2370" y="620" width="240" height="36" rx="10" fill="#E2E8F0" stroke="#475569" stroke-width="2"/>
<text x="2490.0" y="644" text-anchor="middle" font-family="Arial, Helvetica, sans-serif" font-size="16" font-weight="700" fill="#0F172A">Ordonnance</text>
<text x="2382" y="670" font-family="Arial, Helvetica, sans-serif" font-size="14" fill="#1E293B">id</text>
<text x="2382" y="688" font-family="Arial, Helvetica, sans-serif" font-size="14" fill="#1E293B">contenu</text>
</g>
<g filter="url(#shadow)">
<rect x="1790" y="900" width="240" height="128" rx="10" fill="#FFFFFF" stroke="#475569" stroke-width="2"/>
<rect x="1790" y="900" width="240" height="36" rx="10" fill="#E2E8F0" stroke="#475569" stroke-width="2"/>
<text x="1910.0" y="924" text-anchor="middle" font-family="Arial, Helvetica, sans-serif" font-size="16" font-weight="700" fill="#0F172A">Paiement</text>
<text x="1802" y="950" font-family="Arial, Helvetica, sans-serif" font-size="14" fill="#1E293B">id</text>
<text x="1802" y="968" font-family="Arial, Helvetica, sans-serif" font-size="14" fill="#1E293B">montant</text>
<text x="1802" y="986" font-family="Arial, Helvetica, sans-serif" font-size="14" fill="#1E293B">methode</text>
<text x="1802" y="1004" font-family="Arial, Helvetica, sans-serif" font-size="14" fill="#1E293B">statut</text>
</g>
<g filter="url(#shadow)">
<rect x="2060" y="900" width="240" height="110" rx="10" fill="#FFFFFF" stroke="#475569" stroke-width="2"/>
<rect x="2060" y="900" width="240" height="36" rx="10" fill="#E2E8F0" stroke="#475569" stroke-width="2"/>
<text x="2180.0" y="924" text-anchor="middle" font-family="Arial, Helvetica, sans-serif" font-size="16" font-weight="700" fill="#0F172A">Prestation</text>
<text x="2072" y="950" font-family="Arial, Helvetica, sans-serif" font-size="14" fill="#1E293B">id</text>
<text x="2072" y="968" font-family="Arial, Helvetica, sans-serif" font-size="14" fill="#1E293B">type</text>
<text x="2072" y="986" font-family="Arial, Helvetica, sans-serif" font-size="14" fill="#1E293B">statut</text>
</g>
<g filter="url(#shadow)">
<rect x="2330" y="900" width="240" height="128" rx="10" fill="#FFFFFF" stroke="#475569" stroke-width="2"/>
<rect x="2330" y="900" width="240" height="36" rx="10" fill="#E2E8F0" stroke="#475569" stroke-width="2"/>
<text x="2450.0" y="924" text-anchor="middle" font-family="Arial, Helvetica, sans-serif" font-size="16" font-weight="700" fill="#0F172A">Notification</text>
<text x="2342" y="950" font-family="Arial, Helvetica, sans-serif" font-size="14" fill="#1E293B">id</text>
<text x="2342" y="968" font-family="Arial, Helvetica, sans-serif" font-size="14" fill="#1E293B">titre</text>
<text x="2342" y="986" font-family="Arial, Helvetica, sans-serif" font-size="14" fill="#1E293B">message</text>
<text x="2342" y="1004" font-family="Arial, Helvetica, sans-serif" font-size="14" fill="#1E293B">lu</text>
</g>
<g filter="url(#shadow)">
<rect x="2060" y="1140" width="270" height="128" rx="10" fill="#FFFFFF" stroke="#475569" stroke-width="2"/>
<rect x="2060" y="1140" width="270" height="36" rx="10" fill="#E2E8F0" stroke="#475569" stroke-width="2"/>
<text x="2195.0" y="1164" text-anchor="middle" font-family="Arial, Helvetica, sans-serif" font-size="16" font-weight="700" fill="#0F172A">CreneauDisponible</text>
<text x="2072" y="1190" font-family="Arial, Helvetica, sans-serif" font-size="14" fill="#1E293B">id</text>
<text x="2072" y="1208" font-family="Arial, Helvetica, sans-serif" font-size="14" fill="#1E293B">jour</text>
<text x="2072" y="1226" font-family="Arial, Helvetica, sans-serif" font-size="14" fill="#1E293B">heure</text>
<text x="2072" y="1244" font-family="Arial, Helvetica, sans-serif" font-size="14" fill="#1E293B">actif</text>
</g>
</svg>